<svg id="_x33_0" enable-background="new 0 0 64 64" height="512" viewBox="0 0 64 64" width="512" xmlns="http://www.w3.org/2000/svg">
    <g>
        <path   d="m63 28c0-2.757-2.243-5-5-5h-10c-.552 0-1-.449-1-1v-1h-2v1c0 1.654 1.346 3 3 3h10c1.654 0 3 1.346 3 3s-1.346 3-3 3h-17v2h17c2.757 0 5-2.243 5-5z"/>
        <circle fill="blue" cx="24" cy="32" r="1"/>
        <path fill="red" d="m24 45c-7.168 0-13-5.832-13-13s5.832-13 13-13c2.097 0 4.073.511 5.829 1.396-3.81-7.616-8.079-14.091-9.828-16.645-3.485 5.102-17.001 25.821-17.001 40.249 0 9.374 7.626 17 17 17s17-7.626 17-17c0-2.163-.313-4.586-.922-7.222-1.909 4.808-6.598 8.222-12.078 8.222zm-19-1c0-2.161.322-4.595.956-7.233l1.945.467c-.598 2.486-.901 4.762-.901 6.766 0 .313.011.622.032.929l-1.994.143c-.025-.354-.038-.713-.038-1.072zm5.729 11.785c-2.731-2.152-4.643-5.196-5.383-8.571l1.954-.428c.642 2.924 2.299 5.562 4.668 7.429z"/><path d="m25 21.051v1.949h-2v-1.949c-2.283.207-4.366 1.111-6.034 2.502l1.377 1.377-1.414 1.414-1.377-1.377c-1.391 1.667-2.294 3.751-2.501 6.034h1.949v2h-1.949c.207 2.283 1.111 4.366 2.501 6.034l1.377-1.377 1.414 1.414-1.377 1.377c1.667 1.391 3.751 2.294 6.034 2.501v-1.95h2v1.949c2.283-.207 4.366-1.111 6.034-2.501l-1.377-1.377 1.414-1.414 1.377 1.377c1.391-1.667 2.294-3.751 2.501-6.034h-1.949v-2h1.949c-.207-2.283-1.111-4.366-2.501-6.034l-1.377 1.377-1.414-1.414 1.377-1.377c-1.668-1.391-3.751-2.294-6.034-2.501zm1.699 9.664c.188.391.301.823.301 1.285 0 1.654-1.346 3-3 3s-3-1.346-3-3 1.346-3 3-3c.462 0 .894.113 1.285.301l2.958-2.957 1.414 1.414z"/><path d="m39 33v-2h-2.051c.026.331.051.662.051 1s-.025.669-.051 1z"/><path d="m45 15h2c1.103 0 2-.897 2-2v-7c0-1.654-1.346-3-3-3s-3 1.346-3 3v7c0 1.103.897 2 2 2z"/><path d="m45 17h2v2h-2z"/><path d="m58 49c-2.414 0-4.434 1.721-4.899 4h-1.357l-3.732-12.439-3.762 12.225-1.415-7.786h-3.886c-.036.677-.105 1.344-.21 2h2.426l2.585 14.214 4.238-13.774 2.268 7.56h2.845c.465 2.279 2.484 4 4.899 4 2.757 0 5-2.243 5-5s-2.243-5-5-5zm0 8c-1.654 0-3-1.346-3-3s1.346-3 3-3 3 1.346 3 3-1.346 3-3 3z"/>
    </g>
</svg>