<svg id="Capa_1" width="512px" height="512px" viewBox="0 0 512 512" style="enable-background:new 0 0 512 512;" xmlns="http://www.w3.org/2000/svg"  xml:space="preserve">
    <g>
        <path d="m507.431 105c0-57.897-47.103-105-105-105s-105 47.103-105 105c0 50.175 35.379 92.236 82.5 102.565v9.938c0 9.777 6.271 18.113 15 21.209v122.788h15v-122.788c8.729-3.096 15-11.432 15-21.209v-9.938c47.12-10.329 82.5-52.39 82.5-102.565zm-15.315-7.5h-15.061c-3.529-35.379-31.745-63.595-67.124-67.124v-15.061c43.656 3.619 78.566 38.529 82.185 82.185zm-89.685 67.5c-33.084 0-60-26.916-60-60s26.916-60 60-60 60 26.916 60 60-26.916 60-60 60zm-7.5-149.685v15.061c-35.379 3.529-63.595 31.745-67.124 67.124h-15.061c3.619-43.656 38.529-78.566 82.185-82.185zm-82.185 97.185h15.061c3.529 35.379 31.745 63.595 67.124 67.124v15.061c-43.656-3.619-78.566-38.529-82.185-82.185zm97.185 105.002c0 4.135-3.364 7.5-7.5 7.5s-7.5-3.364-7.5-7.5v-7.773c2.478.176 4.978.271 7.5.271s5.022-.095 7.5-.271zm0-22.817v-15.061c35.379-3.529 63.595-31.745 67.124-67.124h15.061c-3.619 43.656-38.529 78.566-82.185 82.185z"/><path d="m424.931 105c0-12.407-10.094-22.5-22.5-22.5s-22.5 10.093-22.5 22.5c0 12.406 10.094 22.5 22.5 22.5 3.469 0 6.757-.79 9.694-2.199l13.991 13.991 10.607-10.606-13.991-13.991c1.408-2.938 2.199-6.226 2.199-9.695zm-22.5 7.5c-4.136 0-7.5-3.364-7.5-7.5s3.364-7.5 7.5-7.5 7.5 3.364 7.5 7.5c0 4.135-3.365 7.5-7.5 7.5z"/><path d="m249.938 321.278-33.845-35.217-18.858 26.002h-18.674v15h26.325l12.82-17.676 33.477 34.832 24.304-31.495h18.814v-15h-26.185z"/><path d="m279.691 241.758h15v15h-15z"/><path d="m309.69 256.759h15v15h-15z"/><path d="m394.931 376.5h15v15h-15z"/><path d="m394.931 421.5c0 41.631-33.869 75.5-75.5 75.5-40.346 0-73.401-31.812-75.403-71.669 1.625-1.138 3.265-2.285 4.933-3.451 46.775-32.689 110.837-77.458 110.837-141.693 0-32.949-18.358-59.834-46.77-68.493-19.461-5.931-46.172-3.026-69.098 19.429v-140.623c0-49.902-40.598-90.5-90.5-90.5s-90.5 40.598-90.5 90.5v224.249c-12.406 0-22.5 10.093-22.5 22.5v16.718c-21.269 13.881-35.861 42.013-35.861 74.408 0 46.111 29.545 83.625 65.862 83.625s65.861-37.514 65.861-83.625c0-32.396-14.593-60.527-35.861-74.408v-16.718c0-12.406-10.094-22.5-22.5-22.5v-224.249c0-41.631 33.869-75.5 75.5-75.5s75.5 33.87 75.5 75.5v140.622c-22.927-22.455-49.64-25.359-69.098-19.429-28.411 8.659-46.77 35.544-46.77 68.493 0 28.505 12.374 55.55 37.83 82.68l10.939-10.264c-22.724-24.218-33.77-47.905-33.77-72.417 0-26.2 14.187-47.454 36.143-54.145 28.018-8.542 52.463 9.948 65.999 30.094l6.226 9.265 6.226-9.265c13.537-20.147 37.981-38.634 65.999-30.094 21.956 6.691 36.143 27.944 36.143 54.145 0 24.747-11.265 48.668-34.439 73.131-20.609 21.757-46.844 40.091-69.99 56.267-1.325.927-2.639 1.844-3.938 2.753-1.29-.903-2.594-1.814-3.911-2.734-19.476-13.612-41.551-29.04-60.407-46.744l-10.268 10.936c19.645 18.444 42.19 34.201 62.082 48.104 1.725 1.205 3.418 2.39 5.096 3.565 2.083 48.07 41.834 86.537 90.408 86.537 49.902 0 90.5-40.598 90.5-90.5v-15h-15zm-273.639 6.875c0 37.84-22.816 68.625-50.861 68.625s-50.861-30.785-50.861-68.625 22.816-68.625 50.861-68.625 50.861 30.784 50.861 68.625zm-35.861-91.126v9.715c-4.822-1.432-9.839-2.214-15-2.214s-10.178.782-15 2.214v-9.715c0-4.135 3.364-7.5 7.5-7.5h15c4.135 0 7.5 3.364 7.5 7.5z"/>
    </g>
</svg>