<svg version="1.1" id="Capa_1" xmlns="http://www.w3.org/2000/svg" xmlns:xlink="http://www.w3.org/1999/xlink" x="0px" y="0px"
	 width="20px" height="20px" viewBox="0 0 32.12 32.121" style="enable-background:new 0 0 32.12 32.121; fill:green;"
	 xml:space="preserve">
<g>
	<g>
		<path style="fill:green;" d="M15.377,6.374c-6.926,0-12.56,5.633-12.56,12.56c0,6.926,5.634,12.561,12.56,12.561c6.925,0,12.561-5.636,12.561-12.561
			C27.938,12.008,22.302,6.374,15.377,6.374z M15.377,29.239c-5.683,0-10.306-4.623-10.306-10.308
			c0-5.682,4.623-10.305,10.306-10.305c5.684,0,10.307,4.624,10.307,10.305C25.684,24.616,21.061,29.239,15.377,29.239z"/>
		<circle cx="3.381" cy="7.529" r="3.381"/>
		<circle cx="26.663" cy="6.733" r="2.585"/>
		<circle cx="30.5" cy="2.247" r="1.62"/>
		<circle cx="9.721" cy="2.881" r="1.268"/>
		<path d="M11.761,13.623c-1.572,0-2.798,0.44-3.678,1.32c-0.881,0.881-1.321,2.109-1.321,3.691c0,1.131,0.222,2.073,0.667,2.825
			c0.444,0.755,1.024,1.304,1.74,1.652c0.715,0.346,1.619,0.521,2.711,0.521c1.074,0,1.971-0.201,2.691-0.604
			c0.72-0.404,1.269-0.969,1.651-1.689c0.38-0.726,0.571-1.652,0.571-2.785c0-1.559-0.436-2.771-1.308-3.635
			C14.614,14.054,13.372,13.623,11.761,13.623z M13.273,20.767c-0.353,0.418-0.85,0.627-1.492,0.627
			c-0.626,0-1.119-0.213-1.482-0.641c-0.364-0.428-0.545-1.129-0.545-2.106c0-0.985,0.183-1.692,0.549-2.119
			c0.365-0.427,0.849-0.642,1.453-0.642c0.628,0,1.127,0.211,1.496,0.631c0.367,0.42,0.552,1.086,0.552,1.998
			C13.802,19.597,13.625,20.349,13.273,20.767z"/>
		<path d="M20.087,21.708c0.121-0.098,0.36-0.312,0.72-0.561c0.603-0.426,1.019-0.836,1.248-1.19
			c0.227-0.356,0.342-0.739,0.342-1.128c0-0.367-0.1-0.704-0.299-0.999c-0.201-0.297-0.474-0.519-0.82-0.659
			c-0.35-0.144-0.836-0.217-1.463-0.217c-0.601,0-1.069,0.074-1.41,0.225c-0.338,0.148-0.603,0.364-0.787,0.646
			c-0.186,0.28-0.314,0.671-0.384,1.173l1.783,0.146c0.049-0.361,0.146-0.614,0.291-0.758c0.144-0.142,0.329-0.213,0.557-0.213
			c0.219,0,0.4,0.068,0.545,0.207s0.216,0.305,0.216,0.5c0,0.18-0.073,0.372-0.218,0.572c-0.147,0.201-0.48,0.494-1.002,0.881
			c-0.854,0.635-1.435,1.102-1.745,1.564c-0.31,0.466-0.496,1.408-0.557,1.408h4.876v-1.127h-2.315
			C19.824,22.179,19.966,21.806,20.087,21.708z"/>
	</g>
</g>
</svg>
